<?xml version="1.0" encoding="UTF-8"?> <!-- Generator: Adobe Illustrator 25.3.0, SVG Export Plug-In . SVG Version: 6.00 Build 0) --> <svg xmlns="http://www.w3.org/2000/svg" xmlns:xlink="http://www.w3.org/1999/xlink" version="1.1" id="Calque_1" x="0px" y="0px" viewBox="0 0 60 60" style="enable-background:new 0 0 60 60;" xml:space="preserve"> <style type="text/css"> .st0{fill:#35BAE6;} </style> <g> <path d="M23.2,55.2c0.5-0.9,0.9-1.8,1.2-2.8c0.9-2.6,1.1-5.3,1.4-8.1c0-0.5-0.1-0.5-0.6-0.5c-0.8,0-1.7,0-2.5,0 c-1.4,0-1.6-0.2-1.6-1.6c0-5.1,0-10.1,0-15.2c0-0.2,0-0.6,0-0.9c-0.2,0.2-0.3,0.3-0.5,0.5c-1.2,1.7-2.7,3.3-4.4,4.7 c-0.3,0.2-0.6,0.6-0.9,0.8c-1.1,0.9-1.6,1.9-1.6,3.4c0,1.2,0,2.5,0,3.9c1.6,0,3.2,0,4.8,0c0,0.7,0,1.2,0,1.9c-0.2,0-0.3,0-0.6,0 c-1.7,0-3.3,0-5,0c-0.9,0-1.2-0.3-1.2-1.2c0-1.6,0-3.2,0-4.8c0-1.8,0.7-3.3,2-4.4c1.2-1.1,2.6-2.3,3.7-3.4c1.4-1.4,2.5-2.9,3.1-4.8 c0.2-0.6,0.3-1.2,0.3-1.9c0-1.8,0.1-3.5,0-5.3c-0.1-1.9,0.5-3.6,1.5-5.2c1.8-2.9,4-5.6,6.4-8.1c0.6-0.6,1-0.6,1.6-0.1 c2.6,2.8,5.1,5.7,6.9,9.2c0.6,1.1,0.9,2.3,0.9,3.6c0,2.2-0.1,4.3,0.1,6.5c0.1,0.9,0.5,1.8,0.9,2.6c1.2,2.5,3.2,4.4,5.3,6.1 c0.3,0.3,0.7,0.6,1,0.9c1.2,1.1,1.9,2.5,1.9,4.2s0,3.4,0,5c0,0.6-0.2,1.1-0.9,1.1c-1.9,0-4,0-6,0c0-0.7,0-1.2,0-1.9 c1.6,0,3.2,0,4.9,0c0-0.2,0.1-0.3,0.1-0.5c0-1.2,0-2.4,0-3.6c0-1.2-0.6-2.2-1.5-3.1c-1.6-1.4-3.1-2.8-4.5-4.3 c-0.5-0.5-0.8-1-1.4-1.6c0,0.2,0,0.5,0,0.8c0,5.1,0,10.2,0,15.3c0,1.2-0.2,1.5-1.5,1.5c-0.9,0-1.9,0-2.9,0c0.3,4,0.6,7.8,2.7,11.3 c0.1-0.3,0.2-0.5,0.2-0.6c0.8-1.9,2.5-3.1,4.5-2.8c0.5,0,0.7,0,0.9-0.5c1.5-2.5,4.2-3.9,7.1-3.3c2.7,0.5,5,2.7,5.4,5.6 c0,0.3,0.1,0.6,0,0.9c0,0.6-0.3,0.8-0.8,0.9c-0.5,0-0.9-0.2-1-0.7c-0.1-0.3-0.1-0.7-0.1-1c-0.3-1.9-1.9-3.4-4-3.9 c-1.8-0.3-3.9,0.6-4.9,2.3c-0.2,0.3-0.2,0.6,0.1,0.9c0.5,0.5,0.8,1,1,1.6c0.3,0.7,0.1,1.2-0.5,1.5s-1,0-1.4-0.8 c-0.6-1.1-1.5-1.7-2.7-1.6c-1,0.1-1.9,0.9-2.2,2c-0.1,0.3,0.1,0.8,0,1.1c0,0.3-0.1,0.8-0.3,1.1c-0.3,0.3-0.8,0.2-1.1,0 c-1.2-0.7-2-1.7-2.7-2.8c-1.1-2-1.6-4.3-1.9-6.6c-0.2-1.4-0.3-2.8-0.5-4.2c0-0.5-0.2-0.7-0.7-0.7c-0.8,0-1.7,0-2.5,0 c-1,0-1-0.2-1.1,1.1c-0.2,2.3-0.5,4.5-1,6.7c-0.3,1.5-1,2.8-1.7,4.2c-0.6,1-1.5,1.8-2.6,2.3c-0.9,0.3-1.6-0.2-1.4-1.1 c0-0.5,0.1-0.9,0-1.4c-0.2-1-1.1-1.8-2.2-1.8c-1.1-0.1-2.2,0.5-2.6,1.4v0.1c-0.3,0.8-0.9,1.1-1.5,0.8c-0.6-0.2-0.7-0.8-0.3-1.6 c0.7-1.7,2.4-2.7,4.2-2.7s3.4,1.1,4.1,2.7c0.1,0.2,0.2,0.5,0.2,0.7C22.9,55.1,23.1,55.1,23.2,55.2z M36.3,41.7c0-0.3,0-0.6,0-0.7 c0-8.8,0-17.7,0-26.7c0-0.7-0.1-1.4-0.5-2C34.4,9.2,32,6.6,29.8,4c-0.1,0.1-0.2,0.1-0.2,0.1c-2.2,2.4-4.3,4.9-5.8,7.8 c-0.5,0.8-0.7,1.7-0.7,2.6c0,8.8,0,17.7,0,26.5c0,0.2,0,0.5,0,0.8C27.5,41.7,31.8,41.7,36.3,41.7z"></path> <path d="M11.4,47.8c0.7,0.1,1.5,0.2,2.2,0.5c0.7,0.2,1,0.7,0.9,1.2C14.2,50,13.8,50.3,13,50c-2.8-0.9-5.6,0.6-6.4,3.4 c-0.1,0.3-0.1,0.7-0.2,1c-0.1,0.6-0.6,0.9-1,0.9c-0.6-0.1-0.9-0.5-0.8-1.1c0-2.9,2.6-5.9,5.7-6.4C10.6,47.9,10.9,47.9,11.4,47.8 L11.4,47.8z"></path> <path class="st0" d="M30.7,34.5c0,1.1,0,2.3,0,3.4c0,0.9-0.3,1.2-1,1.2c-0.7,0-0.9-0.5-0.9-1.2c0-2.3,0-4.7,0-6.9 c0-0.8,0.3-1.1,0.9-1.1c0.7,0,1,0.5,1,1.2C30.7,32.2,30.7,33.3,30.7,34.5z"></path> <path class="st0" d="M33.5,16.4c-0.2,0.3-0.5,0.8-0.7,0.8c-0.3,0.1-0.8,0-1-0.2c-1.4-1.2-2.8-1.2-4.2,0c-0.3,0.3-0.8,0.5-1.2,0.1 c-0.5-0.3-0.6-0.8-0.2-1.2c0.6-0.9,1.5-1.4,2.5-1.6c1.6-0.3,3.1-0.1,4.3,1.1C33.2,15.6,33.3,16,33.5,16.4z"></path> </g> </svg> 