<?xml version="1.0" encoding="UTF-8"?> <!-- Generator: Adobe Illustrator 25.3.0, SVG Export Plug-In . SVG Version: 6.00 Build 0) --> <svg xmlns="http://www.w3.org/2000/svg" xmlns:xlink="http://www.w3.org/1999/xlink" version="1.1" id="Calque_1" x="0px" y="0px" viewBox="0 0 60 60" style="enable-background:new 0 0 60 60;" xml:space="preserve"> <style type="text/css"> .st0{stroke:#191F2B;stroke-width:0.4;stroke-miterlimit:10;} .st1{fill:#35BAE6;stroke:#35BAE6;stroke-miterlimit:10;} </style> <g> <path class="st0" d="M24.1,59.2c-2.4,0-4.8,0-7.3,0c-2.1,0-3.5-0.8-4.6-2.7C9.8,52.3,7.3,48,4.8,43.8c-1-1.7-1-3.4,0-5.1 c2.7-4.2,5.1-8.5,7.6-12.8c1-1.6,2.3-2.4,4.2-2.4c5,0,10,0,15,0c1.8,0,3.3,0.8,4.1,2.4c2.5,4.4,5,8.6,7.5,13c1,1.7,1,3.3,0,5 c-2.5,4.4-5,8.6-7.5,13c-1,1.6-2.3,2.4-4.2,2.4C29.1,59.2,26.6,59.2,24.1,59.2z M24.1,24.8c-2.4,0-5,0-7.4,0 c-1.5,0-2.4,0.6-3.1,1.8c-2.4,4.2-5,8.6-7.4,12.8c-0.7,1.2-0.7,2.4,0,3.6c2.4,4.2,5,8.6,7.4,12.8c0.7,1.3,1.8,1.9,3.3,1.8 c4.8,0,9.8,0,14.6,0c1.5,0,2.5-0.6,3.3-1.9c2.4-4.2,5-8.5,7.4-12.7c0.7-1.2,0.7-2.5,0-3.8c-2.4-4.2-5-8.5-7.4-12.7 c-0.7-1.3-1.8-1.9-3.4-1.9C28.9,24.8,26.5,24.8,24.1,24.8z"></path> <path class="st0" d="M55.2,23c0,1.9,0,3.9,0,5.8c0,1.7-0.7,2.9-2.1,3.6c-1.8,1.1-3.6,2.2-5.6,3.1c-0.1,0-0.1,0.1-0.2,0.1 c-0.4,0.2-0.7,0.2-1-0.2c-0.2-0.5,0-0.7,0.4-1c1.6-0.8,3.1-1.8,4.6-2.7c0.4-0.2,0.8-0.5,1.2-0.7c0.8-0.5,1.3-1.3,1.3-2.3 c0-4,0-8,0-11.9c0-1-0.5-1.8-1.3-2.3c-3.4-1.9-6.8-4-10.3-5.9c-1-0.6-1.8-0.5-2.8,0c-3.4,1.9-6.7,3.9-10,5.8 c-1,0.6-1.5,1.3-1.5,2.5c0,0.7,0,1.6,0,2.3c0,0.5-0.1,0.8-0.6,0.8c-0.5,0-0.7-0.4-0.7-0.8c0-0.8,0-1.7,0-2.4c0-1.6,0.7-2.8,2.1-3.5 c3.4-1.9,6.8-3.9,10.2-5.8c0.6-0.2,1.2-0.5,1.7-0.5c0.8-0.2,1.7,0,2.3,0.5c3.5,1.9,6.9,4,10.4,5.9c1.3,0.7,1.9,1.9,1.9,3.5 C55.2,19,55.2,20.9,55.2,23z"></path> <path class="st0" d="M21.8,10.6c0,1.1,0,2.2,0,3.4c0,1.1-0.5,1.9-1.5,2.5c-1.9,1.1-4,2.3-5.9,3.4c-1,0.6-1.9,0.6-2.9,0 c-1.9-1.1-3.9-2.3-5.8-3.4c-1-0.6-1.5-1.5-1.5-2.5c0-2.3,0-4.5,0-6.8c0-1.2,0.5-1.9,1.5-2.5c1.9-1.2,3.9-2.3,5.9-3.4 c1-0.6,1.9-0.6,2.9,0c1.9,1.1,3.9,2.2,5.8,3.3c1,0.6,1.5,1.5,1.5,2.5C21.8,8.3,21.8,9.4,21.8,10.6z M20.4,10.6c0-1.2,0-2.3,0-3.5 c0-0.6-0.2-1-0.7-1.2c-2.1-1.2-4-2.3-6.1-3.5c-0.5-0.2-1-0.2-1.5,0c-1.9,1.1-3.9,2.3-5.9,3.4C5.8,6.1,5.5,6.5,5.5,7.1 c0,2.3,0,4.6,0,6.8c0,0.6,0.2,1,0.7,1.3c2.1,1.2,4,2.3,6.1,3.5c0.5,0.2,1,0.2,1.5,0c2.1-1.2,4-2.3,6.1-3.5c0.5-0.2,0.7-0.7,0.7-1.3 C20.4,12.8,20.4,11.7,20.4,10.6z"></path> <path class="st0" d="M48.8,22.5c0,3.9-2.1,6.8-5.2,7.9c-0.1,0-0.4,0.2-0.5,0.1c-0.2-0.1-0.6-0.2-0.7-0.5s0.1-0.6,0.2-0.7 c0.1-0.1,0.4-0.1,0.6-0.2c2.7-1.1,4.5-3.9,4.1-6.7c-0.4-3.1-2.5-5.3-5.7-5.8c-2.8-0.5-5.7,1.2-6.8,3.9c0,0.1-0.1,0.2-0.1,0.4 c-0.1,0.4-0.5,0.5-0.8,0.4c-0.4-0.1-0.5-0.5-0.4-0.8c0.5-1.3,1.2-2.4,2.3-3.3c2.5-2.1,5.3-2.5,8.4-1.1 C47.2,17.2,48.6,19.7,48.8,22.5z"></path> <path class="st1" d="M24.2,31.6c5.1,0,9.3,3.9,9.7,9c0,0.6,0,1.2,0,1.9c0,0.6-0.4,1-0.8,0.8s-0.6-0.5-0.5-1c0.5-4.1-2.1-8-6.1-9.1 c-3.3-0.8-6.2,0-8.5,2.5s-2.8,5.6-1.5,8.8c1.3,3.1,3.9,4.8,7.3,5.1c0.5,0,1,0,1.5,0c0.5,0,0.8,0,1,0.6c0.1,0.6-0.4,0.7-0.8,0.8 c-4.4,0.6-9-2.2-10.4-6.7C12.8,38.1,17.5,31.6,24.2,31.6z"></path> <path class="st1" d="M29.5,49.1c-0.1-0.1-0.4-0.2-0.5-0.5c-0.1-0.2,0-0.5,0.1-0.7c0.5-0.6,1.1-1.2,1.7-1.7c0.1-0.1,0.6-0.1,0.7,0 s0.4,0.6,0.2,0.7c-0.6,0.7-1.3,1.3-1.9,2.1C29.9,49.1,29.7,49.1,29.5,49.1z"></path> <path class="st0" d="M13,14.1c0.2,0,0.5,0,0.8-0.1c0.5-0.1,1-0.1,1.1,0.5c0.1,0.6-0.4,0.7-0.8,0.8c-2.4,0.6-5-0.7-5.8-3.1 c-0.8-2.3,0.1-5,2.4-6.1c1.1-0.6,2.2-0.7,3.4-0.5c0.5,0.1,1,0.2,0.8,0.8c-0.1,0.7-0.6,0.6-1.1,0.6c-2.1-0.5-4,0.7-4.5,2.7 c-0.4,1.9,0.8,3.9,2.8,4.2C12.4,14.1,12.8,14.1,13,14.1z"></path> <path class="st0" d="M18,10.6c-0.1,0.4,0,0.8-0.2,1.2c-0.1,0.2-0.5,0.5-0.7,0.5s-0.5-0.4-0.5-0.7c-0.1-0.6-0.1-1.3,0-1.9 c0-0.2,0.4-0.6,0.6-0.7c0.2,0,0.6,0.2,0.7,0.5C17.9,9.6,17.9,10.1,18,10.6z"></path> </g> </svg> 