<svg data-v-0dd9719b="" version="1.1" xmlns="http://www.w3.org/2000/svg" xmlns:xlink="http://www.w3.org/1999/xlink" width="100%" height="100%" viewBox="0 0 340.000000 250.000000" preserveAspectRatio="xMidYMid meet" color-interpolation-filters="sRGB" style="margin: auto;" xmlns:svgjs="http://svgjs.com/svgjs"> <rect data-v-0dd9719b="" x="0" y="0" width="100%" height="100%" fill="#fff" fill-opacity="0" class="background"></rect> <rect data-v-0dd9719b="" x="0" y="0" width="100%" height="100%" fill="url(#watermark)" fill-opacity="1" class="watermarklayer"></rect> <g data-v-0dd9719b="" fill="#1C75BC" class="icon-text-wrapper icon-svg-group iconsvg" transform="translate(48.73500061035156,99.01427459716797)"><g class="iconsvg-imagesvg" transform="translate(0,0)"><g><rect fill="#1C75BC" fill-opacity="0" stroke-width="2" x="0" y="0" width="60" height="51.9714503499411" class="image-rect"></rect> <svg x="0" y="0" width="60" height="51.9714503499411" filtersec="colorsb3404199503" class="image-svg-svg primary" style="overflow: visible;"><svg version="1.1" id="图层_1" xmlns="http://www.w3.org/2000/svg" xmlns:xlink="http://www.w3.org/1999/xlink" x="0px" y="0px" viewBox="2 1.809999942779541 122.63999938964844 106.22999572753906" enable-background="new 0 0 125 109" xml:space="preserve">
<path fill="#8DC63F" d="M58,35.06c0,0,21.05,32.15,12.39,61.95h-0.34C76.6,66.24,34.73,43.6,34.73,43.6L51.4,29l8.84,5.41L58,35.06z
	"></path>
<path fill="#8DC63F" d="M107.85,25.82l-10.91,3.14l-24.99,7.2l-6.97,2c0,0,19.61,29.96,13.18,58.84c-0.82,3.71-2.08,7.41-3.87,11.03
	h19.69l30.66-53.12L107.85,25.82z"></path>
<path fill="#1C75BC" d="M93.99,1.81H32.66L2,54.92l30.66,53.12H57.8c2.17-3.77,3.55-7.45,4.29-11.03
	c6.26-30.63-35.37-53.15-35.37-53.15l24.83-21.72L67.25,32.4l27.17-7.82l10.91-3.14L93.99,1.81z"></path>
</svg></svg> <!----></g></g> <g transform="translate(67,13.025725364685059)"><g data-gra="path-name" fill-rule="" class="tp-name iconsvg-namesvg"><g transform="scale(1)"><g><path d="M24.47-13.33L24.47-13.33Q24.47-6.93 20.95-3.46 17.42 0 11.04 0L11.04 0 2.76 0 2.76-25.57 11.61-25.57Q17.77-25.57 21.12-22.42 24.47-19.28 24.47-13.33ZM17.3-13.08L17.3-13.08Q17.3-16.6 15.91-18.3 14.52-19.99 11.68-19.99L11.68-19.99 9.67-19.99 9.67-5.67 11.21-5.67Q14.36-5.67 15.83-7.49 17.3-9.32 17.3-13.08ZM44.23-5.63L44.23 0 29.05 0 29.05-25.57 44.23-25.57 44.23-20.03 35.96-20.03 35.96-16 43.62-16 43.62-10.46 35.96-10.46 35.96-5.63 44.23-5.63ZM63.89-5.63L63.89 0 48.71 0 48.71-25.57 63.89-25.57 63.89-20.03 55.62-20.03 55.62-16 63.28-16 63.28-10.46 55.62-10.46 55.62-5.63 63.89-5.63ZM86.93-17.44L86.93-17.44Q86.93-13.15 84.4-10.82 81.88-8.48 77.22-8.48L77.22-8.48 75.28-8.48 75.28 0 68.37 0 68.37-25.57 77.22-25.57Q82.07-25.57 84.5-23.46 86.93-21.34 86.93-17.44ZM75.28-19.99L75.28-14.12 76.54-14.12Q78.1-14.12 79.02-14.99 79.93-15.86 79.93-17.4L79.93-17.4Q79.93-19.99 77.07-19.99L77.07-19.99 75.28-19.99ZM91.01 0L91.01-25.57 99.93-25.57Q105.14-25.57 107.67-24.02 110.19-22.48 110.19-19.21L110.19-19.21Q110.19-17.05 109.09-15.53 107.99-14.01 106.19-13.57L106.19-13.57 106.19-13.4Q108.57-12.77 109.63-11.3 110.7-9.83 110.7-7.49L110.7-7.49Q110.7-4.01 108.09-2 105.47 0 100.96 0L100.96 0 91.01 0ZM97.91-20.34L97.91-15.76 100-15.76Q101.48-15.76 102.3-16.37 103.11-16.98 103.11-18.19L103.11-18.19Q103.11-20.34 99.86-20.34L99.86-20.34 97.91-20.34ZM100.21-10.7L97.91-10.7 97.91-5.33 100.35-5.33Q103.58-5.33 103.58-8.06L103.58-8.06Q103.58-9.34 102.72-10.02 101.85-10.7 100.21-10.7L100.21-10.7ZM131.9 0L115.14 0 115.14-25.57 122.05-25.57 122.05-5.58 131.9-5.58 131.9 0ZM150.82-25.57L157.73-25.57 157.73-10.18Q157.73-5.16 154.89-2.41 152.05 0.35 146.7 0.35L146.7 0.35Q141.47 0.35 138.66-2.33 135.85-5 135.85-10.02L135.85-10.02 135.85-25.57 142.8-25.57 142.8-10.56Q142.8-7.85 143.81-6.63 144.83-5.4 146.8-5.4L146.8-5.4Q148.92-5.4 149.87-6.62 150.82-7.84 150.82-10.6L150.82-10.6 150.82-25.57ZM178.29-5.63L178.29 0 163.1 0 163.1-25.57 178.29-25.57 178.29-20.03 170.01-20.03 170.01-16 177.67-16 177.67-10.46 170.01-10.46 170.01-5.63 178.29-5.63Z" transform="translate(-2.759999990463257, 25.56999969482422)"></path></g> <!----> <!----> <!----> <!----> <!----> <!----> <!----></g></g> <!----></g></g><defs v-gra="od"></defs></svg>